<svg width="50" height="50" viewBox="0 0 50 50" fill="none" xmlns="http://www.w3.org/2000/svg">
<circle cx="25" cy="25" r="25" fill="#FFF4E8"/>
<path d="M41.5012 32.2986V35.0986H10V32.1355C9.99844 31.5096 10.2766 30.9158 10.7585 30.5163C12.4582 29.1446 14.2866 27.9402 16.2176 26.9197C16.3424 27.211 17.552 29.9918 18.3232 31.1661V31.1658C18.3339 31.1879 18.3562 31.202 18.3808 31.202C18.4053 31.202 18.4277 31.1879 18.4384 31.1658C18.5951 30.6955 19.2 29.0634 20.1183 29.1754H20.1185C20.1473 29.1841 20.1781 29.1703 20.1908 29.1431C20.2035 29.1161 20.1946 29.0835 20.1696 29.0667C19.4752 28.5132 17.7151 27.0891 17.0464 26.2955V24.3788C16.7486 23.8725 16.5457 23.3163 16.448 22.7371C16.2176 22.7179 15.9167 22.3978 15.5904 21.2491C15.1712 19.7708 15.5647 19.4764 15.9455 19.4795C15.7439 18.6154 15.2319 15.6139 17.4656 14.2507C17.1971 14.0239 17.0415 13.6904 17.0399 13.3388C17.0399 13.3388 19.6 13.6268 20.8192 13.3741C22.0384 13.1212 23.3792 14.0877 23.5872 15.019C23.5872 15.019 26.0863 15.019 25.117 19.483C25.5074 19.467 25.933 19.7359 25.5009 21.2527C25.1808 22.4015 24.8609 22.7248 24.6433 22.7406V22.7404C24.546 23.3197 24.3431 23.8759 24.0448 24.382V26.2829C23.3727 27.0764 21.616 28.5036 20.9185 29.0541C20.8935 29.0708 20.8843 29.1032 20.8973 29.1304C20.91 29.1576 20.9408 29.1715 20.9696 29.1628C21.8879 29.0507 22.4928 30.6795 22.6495 31.1532C22.6602 31.1753 22.6827 31.1893 22.7071 31.1893C22.7316 31.1893 22.7542 31.1753 22.7649 31.1532C23.5361 29.9788 24.7457 27.198 24.8705 26.9068C26.17 27.5989 27.4259 28.3704 28.6303 29.2173C29.0361 29.082 29.4316 28.9186 29.8145 28.7276L29.8848 28.686C30.0846 28.5568 30.2049 28.3351 30.2049 28.0972V26.9036C27.0464 26.9324 26.1154 25.5788 26.1154 25.5788C26.1154 25.5788 27.9203 25.55 27.8083 20.7788C27.696 16.0076 29.8752 15.2364 30.6944 14.9388C33.0784 14.0332 34.2752 15.4732 34.2752 15.4732C37.04 15.2172 37.7953 18.238 37.4752 21.6749C37.1551 25.1118 39.0241 25.6493 39.0241 25.6493C37.7281 26.9741 34.9922 26.8908 34.9922 26.8908V28.1229H34.9919C34.9919 28.3609 35.1122 28.5825 35.312 28.7118L35.3953 28.7629C36.3553 29.2654 38.3265 29.787 38.3649 29.8062C39.01 29.9812 39.637 30.218 40.2368 30.5134C40.94 30.8484 41.4185 31.5245 41.5009 32.2988L41.5012 32.2986Z" fill="#F29425"/>
</svg>
