<svg width="50" height="50" viewBox="0 0 50 50" fill="none" xmlns="http://www.w3.org/2000/svg">
<circle cx="25" cy="25" r="25" fill="#F9EFFF"/>
<path d="M31.3067 33.5906C31.4037 33.6346 31.5007 33.6501 31.5973 33.6501C31.8731 33.6501 32.1339 33.501 32.2606 33.2402C33.7218 30.2956 34.0723 27.6862 33.3042 25.4796C32.6555 23.6234 31.3732 22.5714 30.6649 22.1174C30.2998 25.1145 29.3903 28.4245 27.9364 31.9806C27.914 32.0401 27.8842 32.1 27.8545 32.1522L31.3067 33.5906Z" fill="#A601FF"/>
<path d="M10.396 25.4788C9.62832 27.6854 9.97836 30.2948 11.4323 33.2394C11.5664 33.5002 11.8276 33.6493 12.1027 33.6493C12.2004 33.6493 12.2974 33.6335 12.394 33.5898L15.8457 32.151C15.816 32.0988 15.7862 32.0393 15.7638 31.9794C14.3099 28.4079 13.393 25.106 13.028 22.1089C12.312 22.5791 11.0447 23.6292 10.3961 25.4787L10.396 25.4788Z" fill="#A601FF"/>
<path d="M26.8697 10.0935C24.888 6.82904 22.4218 5.22255 22.2491 5.11127C22.003 4.96291 21.6974 4.96291 21.4513 5.11127C21.279 5.22255 18.8109 6.82825 16.8276 10.0927C18.3581 10.9172 20.075 11.3665 21.8443 11.3665C23.6181 11.3669 25.3378 10.9176 26.8698 10.0935H26.8697Z" fill="#A601FF"/>
<path d="M21.8501 21.0498C22.8574 21.0498 23.6765 20.2307 23.6765 19.2234C23.6765 18.2161 22.857 17.3962 21.8501 17.3962C20.8428 17.3962 20.0229 18.2165 20.0229 19.2234C20.0229 20.2307 20.8428 21.0498 21.8501 21.0498Z" fill="#A601FF"/>
<path d="M14.332 19.2168C14.332 22.7432 15.2786 26.8433 17.1425 31.4203C17.2533 31.6962 17.53 31.8824 17.8275 31.8824H25.8647C26.1696 31.8824 26.4462 31.6962 26.5571 31.4203C28.4209 26.8431 29.361 22.7351 29.361 19.2168C29.361 16.0521 28.6014 13.4661 27.5845 11.4003C25.8346 12.3434 23.8688 12.8576 21.8434 12.8576C19.8216 12.8576 17.8588 12.3426 16.1105 11.3987C15.0924 13.4646 14.3321 16.0517 14.3321 19.2168H14.332ZM21.8504 15.9053C23.6798 15.9053 25.1677 17.3932 25.1677 19.2227C25.1677 21.0521 23.6798 22.5408 21.8504 22.5408C20.0209 22.5408 18.5322 21.0521 18.5322 19.2227C18.5322 17.3936 20.0209 15.9053 21.8504 15.9053Z" fill="#A601FF"/>
<path d="M17.8281 33.3738C17.7832 33.3738 17.7462 33.3738 17.7013 33.3665C17.5074 34.0376 17.3807 34.8949 17.4479 35.9235C17.463 36.1321 17.5673 36.3187 17.7311 36.4304C17.9026 36.5571 18.1113 36.5946 18.3126 36.542L19.1699 36.3183C19.1475 37.8541 19.401 40.7616 21.4588 42.1556C21.5782 42.2302 21.7123 42.2758 21.8463 42.2758C21.9881 42.2758 22.1222 42.2302 22.2339 42.1556C24.299 40.7616 24.5524 37.8542 24.5301 36.3183L25.3874 36.542C25.5887 36.5942 25.7973 36.5571 25.9689 36.4304C26.1331 36.3187 26.2374 36.1321 26.2521 35.9235C26.3193 34.8946 26.1926 34.0373 25.9986 33.3665C25.9538 33.3738 25.909 33.3738 25.8646 33.3738H17.8281Z" fill="#A601FF"/>
<path d="M33.106 17.7729C33.4696 18.1214 33.8939 18.379 34.3485 18.5457C34.8182 18.7123 35.2728 18.8032 35.7121 18.8032C35.8182 18.8032 35.9242 18.7881 36.0304 18.7729C36.1365 18.7578 36.2425 18.7123 36.3486 18.6668C36.4395 18.6062 36.5153 18.5456 36.5758 18.4547C36.6364 18.3638 36.6667 18.2577 36.6667 18.1213C36.6667 17.8789 36.5304 17.6971 36.2425 17.5607C35.9546 17.4244 35.6212 17.288 35.2273 17.1516C34.8788 17.0304 34.5302 16.894 34.1514 16.7577C33.7878 16.6061 33.4544 16.4243 33.1363 16.1819C32.8332 15.9546 32.5757 15.6667 32.3787 15.3334C32.1817 15 32.0757 14.5909 32.0757 14.1061C32.0757 13.6818 32.1514 13.3031 32.2878 12.9697C32.4241 12.6364 32.6211 12.3484 32.8636 12.1212C33.106 11.8788 33.3485 11.697 33.6666 11.5454C33.9849 11.3939 34.3484 11.2879 34.6515 11.2121L34.6513 10H36.4696V11.1819C36.9241 11.2424 37.3484 11.3636 37.7575 11.5303C38.1667 11.697 38.5455 11.9395 38.8939 12.2576L37.5605 14.0152C37.303 13.8031 36.9999 13.6213 36.6666 13.5001C36.3332 13.3789 36.0151 13.3183 35.712 13.3183C35.5908 13.3183 35.4695 13.3183 35.3332 13.3334C35.1968 13.3485 35.0756 13.3789 34.9544 13.4243C34.8332 13.4698 34.7423 13.5456 34.6665 13.6364C34.5907 13.7273 34.5452 13.8486 34.5452 14.0152C34.5452 14.1516 34.5907 14.2577 34.6665 14.3486C34.7423 14.4395 34.8483 14.5153 34.9998 14.591C35.1362 14.6668 35.3028 14.7274 35.4695 14.8032C35.6513 14.8637 35.8332 14.9244 36.0301 14.985C36.3634 15.0911 36.7119 15.2274 37.0907 15.3638C37.4544 15.5001 37.7878 15.6971 38.1059 15.9244C38.4089 16.1516 38.6665 16.4395 38.8635 16.7881C39.0605 17.1365 39.1665 17.5608 39.1665 18.076C39.1665 18.47 39.0907 18.8185 38.9393 19.1367C38.7877 19.4549 38.5908 19.7276 38.3483 19.9548C38.1059 20.182 37.818 20.3791 37.4846 20.5457C37.1513 20.6973 36.7574 20.8184 36.4543 20.8942L36.4544 22.2732H34.6817V20.9398C34.2271 20.8792 33.6058 20.7428 33.0756 20.5306C32.5452 20.3185 32.0908 20.0155 31.6665 19.6064L33.106 17.7729Z" fill="#A601FF"/>
<path d="M12.4662 40.9851C12.6682 41.1786 12.9039 41.3217 13.1565 41.4143C13.4174 41.5069 13.67 41.5574 13.9141 41.5574C13.973 41.5574 14.0319 41.549 14.0909 41.5406C14.1498 41.5322 14.2087 41.5069 14.2677 41.4816C14.3182 41.448 14.3603 41.4143 14.3939 41.3638C14.4276 41.3133 14.4444 41.2543 14.4444 41.1786C14.4444 41.0439 14.3687 40.9429 14.2087 40.8672C14.0488 40.7914 13.8636 40.7157 13.6447 40.6399C13.4511 40.5725 13.2575 40.4968 13.047 40.421C12.845 40.3368 12.6598 40.2358 12.483 40.1011C12.3147 39.9749 12.1716 39.8149 12.0621 39.6297C11.9527 39.4446 11.8938 39.2173 11.8938 38.9479C11.8938 38.7122 11.9359 38.5018 12.0117 38.3166C12.0874 38.1314 12.1968 37.9714 12.3315 37.8452C12.4662 37.7105 12.6009 37.6095 12.7777 37.5253C12.9545 37.4411 13.1565 37.3822 13.3248 37.3401L13.3248 36.6667H14.3349V37.3233C14.5874 37.357 14.8231 37.4243 15.0504 37.5169C15.2777 37.6095 15.4881 37.7442 15.6817 37.921L14.941 38.8974C14.7979 38.7796 14.6295 38.6786 14.4443 38.6113C14.2591 38.5439 14.0824 38.5103 13.914 38.5103C13.8466 38.5103 13.7793 38.5103 13.7036 38.5187C13.6278 38.527 13.5605 38.5439 13.4931 38.5692C13.4258 38.5944 13.3753 38.6365 13.3332 38.687C13.2911 38.7375 13.2658 38.8048 13.2658 38.8974C13.2658 38.9732 13.2911 39.0321 13.3332 39.0826C13.3753 39.1331 13.4341 39.1752 13.5183 39.2173C13.5941 39.2594 13.6867 39.2931 13.7793 39.3352C13.8803 39.3688 13.9813 39.4025 14.0907 39.4362C14.2759 39.4951 14.4695 39.5709 14.68 39.6466C14.882 39.7224 15.0672 39.8318 15.2439 39.9581C15.4123 40.0843 15.5554 40.2442 15.6648 40.4379C15.7743 40.6315 15.8332 40.8672 15.8332 41.1534C15.8332 41.3723 15.7911 41.5659 15.7069 41.7427C15.6227 41.9195 15.5133 42.071 15.3786 42.1972C15.2439 42.3234 15.084 42.4329 14.8988 42.5255C14.7136 42.6097 14.4948 42.677 14.3264 42.7191L14.3265 43.4852H13.3416V42.7444C13.089 42.7108 12.7439 42.6349 12.4493 42.5171C12.1547 42.3993 11.9022 42.2309 11.6665 42.0036L12.4662 40.9851Z" fill="#A601FF"/>
</svg>
