<svg width="50" height="50" viewBox="0 0 50 50" fill="none" xmlns="http://www.w3.org/2000/svg">
<circle cx="25" cy="25" r="25" fill="#ECFFF2"/>
<path d="M14.2714 28.7783V26.9965C14.2714 26.5299 14.6489 26.1483 15.1197 26.1483H24.4514V28.7781C24.723 28.723 25.0071 28.6931 25.2997 28.6931C25.5881 28.6931 25.8722 28.7227 26.1479 28.7781L26.1482 26.1483H35.9041C36.3707 26.1483 36.7524 26.53 36.7524 26.9965V28.7781C37.024 28.723 37.308 28.6931 37.6007 28.6931C37.8891 28.6931 38.1732 28.7227 38.4489 28.7781L38.4492 26.9965C38.4492 25.5926 37.3039 24.4514 35.904 24.4514L26.1481 24.4517V21.9065H24.4516V24.4517H15.1199C13.716 24.4517 12.5747 25.5925 12.5747 26.9968V28.7783C12.8463 28.7233 13.1304 28.6934 13.423 28.6934C13.7115 28.6934 13.9958 28.723 14.2712 28.7783L14.2714 28.7783Z" fill="#10A242"/>
<path d="M27.722 36.4087C27.0347 36.8922 26.1992 37.1765 25.2999 37.1765C24.3963 37.1765 23.5608 36.8922 22.8737 36.4087C21.3509 36.7439 20.21 38.1011 20.21 39.7213V41.4178C20.21 41.8844 20.5875 42.2661 21.0582 42.2661H29.5416C30.0082 42.2661 30.3899 41.8844 30.3899 41.4178V39.7213C30.3899 38.1011 29.2446 36.7439 27.7219 36.4087H27.722Z" fill="#10A242"/>
<path d="M39.9043 36.4898C39.2383 36.9227 38.4495 37.1771 37.6009 37.1771C36.6636 37.1771 35.7981 36.8674 35.0939 36.3499C33.4059 36.5407 32.0869 37.9787 32.0869 39.722V41.4185C32.0869 41.8851 32.4645 42.2668 32.9352 42.2668H41.4186C41.8852 42.2668 42.2668 41.8851 42.2668 41.4185V39.722C42.2668 38.2121 41.27 36.9269 39.9043 36.4898V36.4898Z" fill="#10A242"/>
<path d="M15.8455 36.4087C15.1585 36.8922 14.3227 37.1765 13.4235 37.1765C12.5198 37.1765 11.6843 36.8922 10.9973 36.4087C9.47444 36.7439 8.3335 38.1011 8.3335 39.7213V41.4178C8.3335 41.8844 8.71104 42.2661 9.18176 42.2661H17.6652C18.1318 42.2661 18.5134 41.8844 18.5134 41.4178V39.7213C18.5134 38.1011 17.3684 36.7439 15.8455 36.4087H15.8455Z" fill="#10A242"/>
<path d="M27.8452 32.9351C27.8452 34.3405 26.7058 35.4799 25.3001 35.4799C23.8943 35.4799 22.7549 34.3405 22.7549 32.9351C22.7549 31.5293 23.8943 30.3899 25.3001 30.3899C26.7058 30.3899 27.8452 31.5293 27.8452 32.9351Z" fill="#10A242"/>
<path d="M21.0583 20.21H29.5417C30.0083 20.21 30.39 19.8283 30.39 19.3617V17.6652C30.39 16.045 29.2446 14.6875 27.722 14.3526C27.0347 14.8358 26.1992 15.1201 25.2999 15.1201C24.3963 15.1201 23.5608 14.8358 22.8737 14.3523C21.3509 14.6872 20.21 16.0447 20.21 17.6649V19.3614C20.21 19.8283 20.5875 20.21 21.0582 20.21H21.0583Z" fill="#10A242"/>
<path d="M27.8452 10.8784C27.8452 12.2839 26.7058 13.4233 25.3001 13.4233C23.8943 13.4233 22.7549 12.2839 22.7549 10.8784C22.7549 9.47268 23.8943 8.33325 25.3001 8.33325C26.7058 8.33325 27.8452 9.47268 27.8452 10.8784Z" fill="#10A242"/>
<path d="M40.1457 32.9351C40.1457 34.3405 39.0063 35.4799 37.6005 35.4799C36.1951 35.4799 35.0557 34.3405 35.0557 32.9351C35.0557 31.5293 36.1951 30.3899 37.6005 30.3899C39.0063 30.3899 40.1457 31.5293 40.1457 32.9351Z" fill="#10A242"/>
<path d="M15.9685 32.9351C15.9685 34.3405 14.829 35.4799 13.4233 35.4799C12.0178 35.4799 10.8784 34.3405 10.8784 32.9351C10.8784 31.5293 12.0178 30.3899 13.4233 30.3899C14.829 30.3899 15.9685 31.5293 15.9685 32.9351Z" fill="#10A242"/>
</svg>
