<svg width="39" height="46" viewBox="0 0 39 46" fill="none" xmlns="http://www.w3.org/2000/svg">
<path d="M14.3999 17.4023H20.7999V18.9044H14.3999V17.4023Z" fill="#E84F5A"/>
<path d="M4.80005 17.4023H12.0001V18.9044H4.80005V17.4023Z" fill="#E84F5A"/>
<path d="M18.3999 20.4067H31.9999V21.9088H18.3999V20.4067Z" fill="#E84F5A"/>
<path d="M9.6001 20.4067H16.0001V21.9088H9.6001V20.4067Z" fill="#E84F5A"/>
<path d="M4.80005 20.4067H8.00006V21.9088H4.80005V20.4067Z" fill="#E84F5A"/>
<path d="M12.8 24.9126H24.0001V26.4146H12.8V24.9126Z" fill="#E84F5A"/>
<path d="M28 30.1694H32V31.6714H28V30.1694Z" fill="#E84F5A"/>
<path d="M16 30.1694H25.6V31.6714H16V30.1694Z" fill="#E84F5A"/>
<path d="M4.80005 30.1694H13.6V31.6714H4.80005V30.1694Z" fill="#E84F5A"/>
<path d="M22.3999 33.1733H31.9999V34.6752H22.3999V33.1733Z" fill="#E84F5A"/>
<path d="M10.3999 33.1733H19.9999V34.6752H10.3999V33.1733Z" fill="#E84F5A"/>
<path d="M4.80005 33.1733H8.00006V34.6752H4.80005V33.1733Z" fill="#E84F5A"/>
<path d="M28.8 36.1772H32.0001V37.6793H28.8V36.1772Z" fill="#E84F5A"/>
<path d="M14.3999 36.1772H26.3998V37.6793H14.3999V36.1772Z" fill="#E84F5A"/>
<path d="M4.80005 36.1772H12.0001V37.6793H4.80005V36.1772Z" fill="#E84F5A"/>
<path d="M29.6001 39.1816H32.0001V40.6837H29.6001V39.1816Z" fill="#E84F5A"/>
<path d="M19.2 39.1816H27.2V40.6837H19.2V39.1816Z" fill="#E84F5A"/>
<path d="M4.80005 39.1816H16.8V40.6837H4.80005V39.1816Z" fill="#E84F5A"/>
<path d="M4 45.1893H34.4C35.4605 45.1881 36.4772 44.7922 37.2271 44.0882C37.977 43.3843 38.3988 42.4299 38.4 41.4343V13.39C38.4015 12.8967 38.2987 12.408 38.0976 11.9523C37.8965 11.4965 37.601 11.0827 37.2284 10.7349L27.103 1.2297L27.1029 1.22966C26.7324 0.879907 26.2916 0.602621 25.8061 0.413848C25.3206 0.225075 24.8 0.128563 24.2745 0.129896H4C2.9395 0.131027 1.92279 0.527 1.1729 1.23094C0.423019 1.93489 0.00120479 2.88932 0 3.88484V41.4343C0.00120479 42.4299 0.423019 43.3843 1.1729 44.0882C1.92279 44.7922 2.9395 45.1881 4 45.1893ZM1.6 3.88484C1.60073 3.28753 1.85382 2.71487 2.30375 2.29251C2.75368 1.87014 3.3637 1.63256 4 1.63188H24.2745C24.4513 1.63198 24.6275 1.65027 24.8 1.68642V9.14177C24.8012 10.1373 25.223 11.0917 25.9729 11.7957C26.7228 12.4996 27.7395 12.8956 28.8 12.8967H33.6V11.3947H28.8C28.1637 11.3941 27.5537 11.1565 27.1037 10.7341C26.6538 10.3117 26.4007 9.73909 26.4 9.14177V2.69391L36.0971 11.797C36.3206 12.0057 36.4979 12.2539 36.6186 12.5274C36.7392 12.8008 36.8009 13.094 36.8 13.39V41.4343C36.7993 42.0316 36.5462 42.6043 36.0963 43.0267C35.6463 43.449 35.0363 43.6866 34.4 43.6873H4C3.3637 43.6866 2.75368 43.449 2.30375 43.0267C1.85382 42.6043 1.60073 42.0316 1.6 41.4343V3.88484Z" fill="black"/>
<path d="M5.12007 12.7465L8.32007 14.9995C8.45854 15.097 8.62696 15.1497 8.80005 15.1497H12.0001C12.1731 15.1497 12.3416 15.097 12.48 14.9995L15.68 12.7465C15.7794 12.6765 15.8601 12.5858 15.9156 12.4815C15.9711 12.3773 16.0001 12.2623 16.0001 12.1457V7.63974C16.0001 7.51611 15.9675 7.39439 15.9054 7.28539C15.8433 7.17638 15.7534 7.08347 15.6438 7.0149L10.8438 4.01093C10.7124 3.92867 10.558 3.88477 10.4001 3.88477C10.2421 3.88477 10.0877 3.92867 9.9563 4.01093L5.1563 7.0149C5.04671 7.08347 4.95686 7.17638 4.89471 7.28539C4.83256 7.39439 4.80005 7.51611 4.80005 7.63974V12.1457C4.80005 12.2623 4.82896 12.3773 4.88451 12.4815C4.94006 12.5858 5.02071 12.6765 5.12007 12.7465ZM11.7334 13.6477H9.06675L6.40005 11.7702V9.04297L9.9563 11.2686C10.0877 11.3508 10.2421 11.3947 10.4001 11.3947C10.558 11.3947 10.7124 11.3508 10.8438 11.2686L14.4001 9.04297V11.7702L11.7334 13.6477ZM10.4001 5.53835L13.7579 7.63974L10.4001 9.74114L7.04224 7.63974L10.4001 5.53835Z" fill="black"/>
</svg>
