<svg width="48" height="46" viewBox="0 0 48 46" fill="none" xmlns="http://www.w3.org/2000/svg">
<path d="M38.3847 23.8266L40.5726 21.7727C41.2162 21.1686 40.2183 20.2363 39.5749 20.8404L37.4456 22.8394C36.765 23.3454 35.9806 23.3341 35.3207 22.8268L38.2896 20.0396C38.9331 19.4355 37.9352 18.503 37.2919 19.1073L32.6021 23.5098C32.0207 24.0557 31.0522 24.0557 30.4707 23.5098C29.8819 22.9571 29.8819 22.0578 30.4705 21.5049C30.4706 21.5049 30.4707 21.5049 30.4707 21.5048L31.2323 20.7898C31.8759 20.1857 30.8779 19.2532 30.2346 19.8574L29.473 20.5724C28.8916 21.1183 27.9231 21.1183 27.3416 20.5724C26.7527 20.0196 26.7527 19.1202 27.3417 18.5673C27.3419 18.5671 27.342 18.567 27.3421 18.5669L28.1033 17.8523C28.7468 17.2483 27.7489 16.3158 27.1056 16.92L26.3445 17.6345C25.7764 18.1666 24.7809 18.1684 24.2126 17.6349C23.539 17.0026 23.7588 16.178 24.2853 15.5616L24.9742 14.9148C25.6178 14.3108 24.6199 13.3785 23.9764 13.9826L23.2881 14.6288C22.6932 15.1432 21.7517 15.1883 21.1561 14.6294C20.5672 14.0765 20.5672 13.177 21.1561 12.6242L28.4556 5.77177C29.9742 4.3461 32.3101 3.945 34.2681 4.7736C34.5356 4.88676 34.8498 4.83291 35.057 4.63826L38.6072 1.30548C39.2507 0.701461 38.2529 -0.230972 37.6094 0.373226L34.3896 3.39598C32.0014 2.58384 29.2712 3.13718 27.4578 4.83951L20.1583 11.692C18.2811 13.4529 19.7226 16.4926 22.3767 16.3602C22.175 18.0095 23.7001 19.5029 25.4998 19.3618C25.4378 20.1301 25.7192 20.9184 26.3438 21.5048C26.9434 22.0677 27.7837 22.3582 28.6288 22.2993C28.5669 23.0676 28.8482 23.8559 29.4727 24.4423C30.5878 25.4891 32.4819 25.4915 33.5996 24.4423L34.325 23.7612C35.3976 24.7649 37.2827 24.8603 38.3847 23.8266Z" fill="#E84F5A" fill-opacity="0.75"/>
<path d="M47.7929 8.9965C47.5174 8.7391 47.0712 8.73945 46.7964 8.99755L43.2462 12.3304C43.0397 12.5243 42.9825 12.8175 43.1025 13.0673C43.9857 14.9068 43.5583 17.1012 42.0389 18.5277C41.3955 19.1316 42.3931 20.0643 43.0366 19.46C44.8498 17.7578 45.4386 15.195 44.573 12.9539L47.7942 9.93C48.069 9.6719 48.0685 9.25399 47.7929 8.9965Z" fill="#E84F5A" fill-opacity="0.75"/>
<path d="M5.69875 25.2663L4.96542 25.9547C3.15224 27.6569 2.56342 30.2197 3.42904 32.4607L0.207831 35.4847C-0.435584 36.0887 0.561953 37.0213 1.20556 36.4171L4.75571 33.0843C4.96222 32.8904 5.01944 32.5972 4.89946 32.3473C4.01627 30.5078 4.44358 28.3134 5.96305 26.887L6.69638 26.1986C7.33998 25.5946 6.34207 24.6621 5.69875 25.2663Z" fill="#E84F5A" fill-opacity="0.75"/>
<path d="M25.8516 31.716C25.8519 31.7158 25.8522 31.7154 25.8525 31.7151C26.9881 30.6482 26.9878 28.9129 25.8516 27.8463C25.252 27.2835 24.4118 26.993 23.5666 27.0519C23.6285 26.2836 23.3472 25.4953 22.7227 24.909C22.1234 24.3463 21.2825 24.0551 20.4376 24.1145C20.4995 23.3462 20.2182 22.5579 19.5937 21.9716C18.9777 21.3934 18.1064 21.1029 17.2403 21.1826C17.2823 20.4343 16.9995 19.6727 16.392 19.1023C15.2769 18.0556 13.3829 18.0532 12.2653 19.1023L8.22447 22.8956C7.58096 23.4997 8.57859 24.4318 9.22219 23.8279L13.2629 20.0348C13.8442 19.4889 14.8129 19.4889 15.3942 20.0348C15.983 20.5875 15.9831 21.4867 15.3945 22.0396C15.3944 22.0397 15.3943 22.0398 15.3942 22.0399L14.7052 22.6866C14.0619 23.2906 15.0592 24.2232 15.7029 23.6189L16.3919 22.9722C16.9904 22.4117 17.9593 22.3064 18.5959 22.904C19.1848 23.4568 19.1848 24.3562 18.5959 24.9091L17.8343 25.6241C17.1909 26.228 18.1886 27.1607 18.8321 26.5564L19.5931 25.8419C20.1613 25.3098 21.1568 25.308 21.725 25.8415C22.3139 26.3943 22.3139 27.2937 21.725 27.8466C21.7248 27.8468 21.7247 27.8469 21.7245 27.847L20.9634 28.5616C20.32 29.1655 21.3176 30.0982 21.9611 29.4938L22.7226 28.7788C23.304 28.2331 24.2724 28.233 24.8539 28.7788C25.4428 29.3316 25.4428 30.2311 24.8539 30.784L23.6297 31.9333C23.6297 31.9333 23.6297 31.9333 23.6296 31.9334L20.1642 35.1866C19.5208 35.7906 20.5183 36.7231 21.1619 36.1189L24.1285 33.334C24.6935 33.9513 24.6571 34.7136 24.1396 35.3309L19.5463 39.6428C18.0277 41.0683 15.6917 41.4694 13.7339 40.6409C13.4665 40.5278 13.1522 40.5817 12.9449 40.7763L9.39479 44.109C8.75138 44.713 9.74891 45.6455 10.3925 45.0413L13.6124 42.0186C16.0006 42.8307 18.7308 42.2774 20.5441 40.5751L25.1958 36.2083C26.4378 35.0433 25.915 33.4745 25.1714 32.355L25.8516 31.716Z" fill="#E84F5A" fill-opacity="0.75"/>
<path d="M8.93479 9.5557C9.57482 10.1652 10.5776 9.2375 9.93928 8.62988L5.47231 4.37804C4.83332 3.76963 3.82873 4.69553 4.46782 5.30386L8.93479 9.5557Z" fill="#E84F5A" fill-opacity="0.75"/>
<path d="M13.0404 13.4004C13.6707 14.0236 14.6876 13.1096 14.0635 12.4926L12.7531 11.197C12.1265 10.5775 11.1034 11.4854 11.73 12.1048L13.0404 13.4004Z" fill="#E84F5A" fill-opacity="0.75"/>
<path d="M6.91385 16.9151L1.86557 15.6072C0.987359 15.3797 0.611628 16.6518 1.48974 16.8794L6.53802 18.1873C7.38513 18.4065 7.78295 17.1403 6.91385 16.9151Z" fill="#E84F5A" fill-opacity="0.75"/>
<path d="M18.0883 7.07163C18.313 7.88321 19.6821 7.56933 19.4525 6.74032L18.1378 1.99182C17.909 1.1658 16.5449 1.4971 16.7735 2.32312L18.0883 7.07163Z" fill="#E84F5A" fill-opacity="0.75"/>
<path d="M37.8649 34.8334C37.226 34.2249 36.2213 35.1509 36.8604 35.7593L41.3275 40.0115C41.9675 40.621 42.9703 39.6933 42.3319 39.0856L37.8649 34.8334Z" fill="#E84F5A" fill-opacity="0.75"/>
<path d="M33.7592 30.9885C33.1326 30.369 32.1095 31.2769 32.7361 31.8963L34.0465 33.1919C34.6768 33.8151 35.6937 32.9011 35.0696 32.2841L33.7592 30.9885Z" fill="#E84F5A" fill-opacity="0.75"/>
<path d="M45.3101 27.5099L40.2618 26.2022C39.3836 25.9747 39.0079 27.2467 39.886 27.4742L44.9343 28.782C45.7814 29.0011 46.1793 27.7351 45.3101 27.5099Z" fill="#E84F5A" fill-opacity="0.75"/>
<path d="M28.7115 37.318C28.4827 36.492 27.1186 36.8233 27.3473 37.6493L28.662 42.3978C28.8868 43.2094 30.2558 42.8955 30.0263 42.0665L28.7115 37.318Z" fill="#E84F5A" fill-opacity="0.75"/>
</svg>
