<svg width="14" height="16" viewBox="0 0 14 16" fill="none" xmlns="http://www.w3.org/2000/svg">
<path d="M12.7756 13.0781C12.7756 13.0781 12.0031 13.9316 11.8138 14.1819C11.5054 14.5521 11.1421 14.7269 10.6658 14.7269C10.62 14.7269 10.5712 14.7269 10.5254 14.7235C9.61861 14.6583 8.77595 14.2607 8.14395 13.9214C6.41588 12.9822 4.89847 11.6488 3.63753 9.95888C2.59641 8.55007 1.9003 7.24753 1.43927 5.849C1.15533 4.99549 1.05152 4.33051 1.09732 3.70323C1.12785 3.30218 1.26524 2.96969 1.51865 2.68518L2.55977 1.51632C2.70938 1.35864 2.86814 1.27295 3.02385 1.27295C3.2162 1.27295 3.3719 1.4032 3.46961 1.51289C3.47266 1.51632 3.47571 1.51975 3.47876 1.52318C3.66501 1.71856 3.84209 1.9208 4.02833 2.13674C4.12298 2.24643 4.22068 2.35612 4.31838 2.46924L5.15188 3.40501C5.47551 3.76836 5.47551 4.10428 5.15188 4.46762C5.06334 4.56702 4.97785 4.66643 4.88931 4.7624C4.63285 5.05719 4.83431 4.831 4.56869 5.09837C4.56259 5.10522 4.55648 5.10865 4.55343 5.11551C4.29086 5.41029 4.33971 5.69823 4.39466 5.89361C4.39772 5.90389 4.40077 5.91417 4.40382 5.92446C4.6206 6.51403 4.92591 7.06933 5.38998 7.73088L5.39304 7.73431C6.2357 8.89975 7.12416 9.8081 8.10422 10.5039C8.2294 10.5931 8.35763 10.665 8.47975 10.7336C8.58967 10.7953 8.69347 10.8536 8.78201 10.9153C8.79423 10.9221 8.80644 10.9324 8.81865 10.9393C8.92246 10.9975 9.02016 11.025 9.12091 11.025C9.37432 11.025 9.53309 10.8467 9.58499 10.7884L10.1834 10.1166C10.2872 10 10.4521 9.85948 10.6445 9.85948C10.8338 9.85948 10.9895 9.99316 11.0841 10.1097C11.0872 10.1131 11.0872 10.1131 11.0902 10.1166L12.7725 12.0053C13.087 12.3549 12.7756 13.0781 12.7756 13.0781Z" stroke="white" stroke-width="2" stroke-linecap="round" stroke-linejoin="round"/>
</svg>
