<svg width="145" height="88" viewBox="0 0 145 88" fill="none" xmlns="http://www.w3.org/2000/svg">
<path d="M72.0778 65.4193C73.3586 65.7126 74.0595 64.8618 74.4945 62.4711C74.712 61.3418 75.147 59.4206 75.4853 58.2033C76.3311 55.1966 76.0653 54.3459 74.5911 55.1526C72.9236 56.0766 70.7003 65.0966 72.0778 65.4193Z" fill="white"/>
<path d="M74.4463 52.586C74.1563 53.906 76.8388 54.2287 78.0955 48.2593C78.9172 44.3433 78.8447 43.0379 77.7572 43.0379C75.703 43.0379 75.2197 49.1247 74.4463 52.586Z" fill="white"/>
<path d="M75.2437 79.4846C75.3404 79.646 73.9629 78.9126 72.1746 77.8566C68.3079 75.5833 67.0996 75.026 66.5196 75.3193C65.8187 75.6713 65.3596 76.6833 65.6737 77.138C65.7946 77.2993 66.9546 78.062 68.2596 78.8393C71.0629 80.482 75.2679 83.2246 76.9112 84.4713C79.1829 86.202 79.7387 86.5101 80.1496 86.3488C81.1646 85.9674 81.2371 85.6008 81.1646 80.2914C81.1162 76.2581 81.1887 74.8648 81.5029 73.4714C82.2279 70.2153 82.2762 69.9221 82.1554 69.5261C81.3579 67.0034 79.014 72.8114 78.9173 77.5488C78.8931 78.5021 78.7962 79.2208 78.6996 79.1621C78.3612 78.9421 75.9929 74.0728 74.8329 71.2568C73.5279 68.1328 73.3587 67.8246 72.6821 67.8246C69.9754 67.8246 71.0871 72.8553 75.2437 79.4846Z" fill="white"/>
<path d="M63.2086 1.78077C62.6286 2.19143 62.5803 2.44077 62.9428 3.20344C63.5228 4.4061 67.9936 8.57129 68.6945 8.57129C71.087 8.57129 68.9845 4.3621 65.6011 2.3821C64.0545 1.4581 63.7645 1.39943 63.2086 1.78077Z" fill="white"/>
<path d="M71.1835 14.6582C74.2527 19.7329 73.9869 19.4542 75.0502 18.9116C76.5969 18.1196 75.0744 13.441 72.706 11.7104C70.9419 10.3904 69.8544 12.4582 71.1835 14.6582Z" fill="white"/>
<path d="M76.7901 38.5941C76.9592 40.7501 77.032 40.8528 77.9503 40.5301C79.8353 39.8995 80.4634 33.4608 78.7476 32.4194C76.9834 31.3488 76.3551 33.2848 76.7901 38.5941Z" fill="white"/>
<path d="M75.4856 24.338C75.5339 24.4113 75.9689 25.7021 76.4281 27.1834C77.3948 30.3221 77.6606 30.5861 78.6756 29.3834C79.8114 28.0341 77.9506 21.3313 76.4281 21.3313C75.5581 21.3313 74.8814 23.458 75.4856 24.338Z" fill="white"/>
</svg>
