<svg width="924" height="67" viewBox="0 0 924 67" fill="none" xmlns="http://www.w3.org/2000/svg">
<circle cx="15" cy="15" r="15" fill="#02A6DC"/>
<path d="M12.3345 18.1385C14.0888 18.142 15.1364 16.7571 15.1364 14.3707C15.1364 11.9986 14.0817 10.6278 12.3345 10.6278C10.5874 10.6278 9.53622 11.995 9.53267 14.3707C9.53267 16.7536 10.5803 18.1385 12.3345 18.1385ZM12.3345 17.027C11.429 17.027 10.8608 16.1179 10.8643 14.3707C10.8679 12.6378 11.4325 11.7251 12.3345 11.7251C13.2401 11.7251 13.8047 12.6378 13.8082 14.3707C13.8082 16.1179 13.2436 17.027 12.3345 17.027ZM19.2743 10.7273H18.0208L16.2132 11.8885V13.0959L17.9142 12.0092H17.9569V18H19.2743V10.7273Z" fill="white"/>
<circle cx="427.198" cy="34.8701" r="15" fill="#02A6DC"/>
<path d="M424.335 38.1385C426.089 38.142 427.136 36.7571 427.136 34.3707C427.136 31.9986 426.082 30.6278 424.335 30.6278C422.587 30.6278 421.536 31.995 421.533 34.3707C421.533 36.7536 422.58 38.1385 424.335 38.1385ZM424.335 37.027C423.429 37.027 422.861 36.1179 422.864 34.3707C422.868 32.6378 423.433 31.7251 424.335 31.7251C425.24 31.7251 425.805 32.6378 425.808 34.3707C425.808 36.1179 425.244 37.027 424.335 37.027ZM428.316 38H433.302V36.8991H430.134V36.8494L431.388 35.5746C432.801 34.218 433.192 33.5575 433.192 32.7372C433.192 31.5192 432.201 30.6278 430.738 30.6278C429.296 30.6278 428.274 31.5227 428.274 32.9041H429.527C429.527 32.1619 429.996 31.6967 430.72 31.6967C431.413 31.6967 431.928 32.1193 431.928 32.8047C431.928 33.4119 431.558 33.8452 430.841 34.5732L428.316 37.0483V38Z" fill="white"/>
<circle cx="908.549" cy="51.0146" r="15" fill="#02A6DC"/>
<path d="M905.335 55.1385C907.089 55.142 908.136 53.7571 908.136 51.3707C908.136 48.9986 907.082 47.6278 905.335 47.6278C903.587 47.6278 902.536 48.995 902.533 51.3707C902.533 53.7536 903.58 55.1385 905.335 55.1385ZM905.335 54.027C904.429 54.027 903.861 53.1179 903.864 51.3707C903.868 49.6378 904.433 48.7251 905.335 48.7251C906.24 48.7251 906.805 49.6378 906.808 51.3707C906.808 53.1179 906.244 54.027 905.335 54.027ZM911.926 55.0994C913.482 55.0994 914.615 54.2081 914.611 52.9794C914.615 52.0703 914.046 51.4169 913.027 51.2713V51.2145C913.816 51.044 914.345 50.4581 914.341 49.6413C914.345 48.5334 913.4 47.6278 911.948 47.6278C910.534 47.6278 909.441 48.4695 909.412 49.6875H910.68C910.701 49.0767 911.269 48.6967 911.941 48.6967C912.619 48.6967 913.07 49.1087 913.066 49.7195C913.07 50.3551 912.544 50.7777 911.791 50.7777H911.149V51.7933H911.791C912.711 51.7933 913.258 52.255 913.254 52.9119C913.258 53.5547 912.7 53.995 911.923 53.995C911.191 53.995 910.627 53.6151 910.595 53.022H909.259C909.295 54.2507 910.392 55.0994 911.926 55.0994Z" fill="white"/>
<path d="M61.0164 22.354C61.0164 22.354 119.999 32.91 221.014 37.8775C322.03 42.845 385.758 37.8775 385.758 37.8775" stroke="white" stroke-width="2" stroke-linecap="round" stroke-linejoin="round" stroke-dasharray="1 10"/>
<path d="M471.181 35.3936C471.181 35.3936 595.925 27.9422 695.585 27.9422C795.245 27.9422 871.854 42.8447 871.854 42.8447" stroke="white" stroke-width="2" stroke-linecap="round" stroke-linejoin="round" stroke-dasharray="1 10"/>
</svg>
