<svg width="122" height="125" viewBox="0 0 122 125" fill="none" xmlns="http://www.w3.org/2000/svg">
<path d="M90.6949 62.1358C91.1016 63.24 89.922 63.8442 86.6077 64.2192C85.042 64.4067 82.3786 64.7817 80.6909 65.0733C76.5226 65.8025 75.3432 65.5733 76.4616 64.3025C77.7426 62.865 90.2476 60.9483 90.6949 62.1358Z" fill="white"/>
<path d="M72.903 64.1777C74.733 63.9277 75.1804 66.2402 66.9047 67.3235C61.4757 68.0319 59.6658 67.9694 59.6658 67.0319C59.6658 65.261 68.1044 64.8444 72.903 64.1777Z" fill="white"/>
<path d="M110.194 64.8651C110.418 64.9485 109.401 63.761 107.937 62.2193C104.786 58.886 104.013 57.8443 104.42 57.3443C104.908 56.7401 106.311 56.3443 106.941 56.6152C107.165 56.7193 108.222 57.7193 109.3 58.8443C111.577 61.261 115.379 64.886 117.108 66.3027C119.507 68.261 119.934 68.7402 119.711 69.0943C119.182 69.9693 118.674 70.0318 111.313 69.9693C105.721 69.9276 103.79 69.9901 101.858 70.261C97.3438 70.886 96.9373 70.9276 96.3883 70.8235C92.891 70.136 100.943 68.1154 107.511 68.032C108.832 68.0112 109.829 67.9277 109.747 67.8443C109.442 67.5527 102.692 65.511 98.7877 64.511C94.4567 63.386 94.0295 63.2401 94.0295 62.6568C94.0295 60.3235 101.004 61.2818 110.194 64.8651Z" fill="white"/>
<path d="M2.46844 54.4901C3.03777 53.9901 3.38344 53.9484 4.44077 54.2609C6.10811 54.7609 11.8826 58.6151 11.8826 59.2192C11.8826 61.2817 6.04711 59.4692 3.30211 56.5526C2.02111 55.2192 1.93977 54.9692 2.46844 54.4901Z" fill="white"/>
<path d="M20.3215 61.3649C27.3568 64.0107 26.9705 63.7816 26.2181 64.6982C25.1201 66.0316 18.634 64.7191 16.2347 62.6774C14.4047 61.1566 17.2715 60.2191 20.3215 61.3649Z" fill="white"/>
<path d="M53.5054 66.1983C56.4944 66.3441 56.6367 66.4068 56.1894 67.1985C55.3151 68.8235 46.3887 69.3649 44.9451 67.8858C43.4607 66.3649 46.1447 65.8233 53.5054 66.1983Z" fill="white"/>
<path d="M33.7411 65.0736C33.8428 65.1153 35.6323 65.4903 37.686 65.8861C42.0373 66.7195 42.4033 66.9486 40.736 67.8236C38.8653 68.8028 29.5728 67.1986 29.5728 65.8861C29.5728 65.1361 32.5211 64.5528 33.7411 65.0736Z" fill="white"/>
</svg>
