<svg width="100%" height="100%" id="svg" viewBox="0 0 1440 590" xmlns="http://www.w3.org/2000/svg" class="transition duration-300 ease-in-out delay-150"><path d="M 0,600 L 0,150 C 113.53110047846889,108.84210526315789 227.06220095693777,67.6842105263158 324,95 C 420.9377990430622,122.3157894736842 501.28229665071785,218.10526315789474 584,223 C 666.7177033492821,227.89473684210526 751.8086124401912,141.89473684210526 838,131 C 924.1913875598088,120.10526315789473 1011.4832535885168,184.31578947368422 1112,200 C 1212.5167464114832,215.68421052631578 1326.2583732057415,182.8421052631579 1440,150 L 1440,600 L 0,600 Z" stroke="none" stroke-width="0" fill="#8ed1fc" fill-opacity="0.53" class="transition-all duration-300 ease-in-out delay-150 path-0"></path><path d="M 0,600 L 0,350 C 93.16746411483251,373.52153110047846 186.33492822966502,397.04306220095697 272,394 C 357.665071770335,390.95693779904303 435.82775119617236,361.3492822966507 536,349 C 636.1722488038276,336.6507177033493 758.3540669856459,341.5598086124402 871,362 C 983.6459330143541,382.4401913875598 1086.7559808612439,418.41148325358853 1180,419 C 1273.2440191387561,419.58851674641147 1356.622009569378,384.7942583732057 1440,350 L 1440,600 L 0,600 Z" stroke="none" stroke-width="0" fill="#8ed1fc" fill-opacity="1" class="transition-all duration-300 ease-in-out delay-150 path-1"></path></svg>